G04 #@! TF.GenerationSoftware,KiCad,Pcbnew,(5.1.6)-1*
G04 #@! TF.CreationDate,2020-08-27T22:54:22+08:00*
G04 #@! TF.ProjectId,ESP32-Wall-Clock,45535033-322d-4576-916c-6c2d436c6f63,1.0a*
G04 #@! TF.SameCoordinates,Original*
G04 #@! TF.FileFunction,Profile,NP*
%FSLAX46Y46*%
G04 Gerber Fmt 4.6, Leading zero omitted, Abs format (unit mm)*
G04 Created by KiCad (PCBNEW (5.1.6)-1) date 2020-08-27 22:54:22*
%MOMM*%
%LPD*%
G01*
G04 APERTURE LIST*
G04 #@! TA.AperFunction,Profile*
%ADD10C,0.100000*%
G04 #@! TD*
G04 #@! TA.AperFunction,Profile*
%ADD11C,0.120000*%
G04 #@! TD*
G04 APERTURE END LIST*
D10*
X300000000Y-53000000D02*
X300000000Y-147000000D01*
X300000000Y-53000000D02*
G75*
G03*
X297000000Y-50000000I-3000000J0D01*
G01*
X13000000Y-150000000D02*
X297000000Y-150000000D01*
X13000000Y-50000000D02*
X297000000Y-50000000D01*
X13000000Y-50000000D02*
G75*
G03*
X10000000Y-53000000I0J-3000000D01*
G01*
X10000000Y-53000000D02*
X10000000Y-147000000D01*
X10000000Y-147000000D02*
G75*
G03*
X13000000Y-150000000I3000000J0D01*
G01*
X297000000Y-150000000D02*
G75*
G03*
X300000000Y-147000000I0J3000000D01*
G01*
D11*
X35050000Y-144300000D02*
X35050000Y-144100000D01*
X36050000Y-144300000D02*
X36050000Y-143100000D01*
X35050000Y-147500000D02*
X35050000Y-147700000D01*
X36050000Y-147500000D02*
X36050000Y-148700000D01*
X34550000Y-148200000D02*
X31100000Y-148200000D01*
X35550000Y-149200000D02*
X30100000Y-149200000D01*
X35550000Y-142600000D02*
X30100000Y-142600000D01*
X29600000Y-143100000D02*
X29600000Y-148700000D01*
X30600000Y-147700000D02*
X30600000Y-144100000D01*
X31100000Y-143600000D02*
X34550000Y-143600000D01*
X29600000Y-143100000D02*
G75*
G02*
X30100000Y-142600000I500000J0D01*
G01*
X30600000Y-144100000D02*
G75*
G02*
X31100000Y-143600000I500000J0D01*
G01*
X30100000Y-149200000D02*
G75*
G02*
X29600000Y-148700000I0J500000D01*
G01*
X31100000Y-148200000D02*
G75*
G02*
X30600000Y-147700000I0J500000D01*
G01*
X36050000Y-148700000D02*
G75*
G02*
X35550000Y-149200000I-500000J0D01*
G01*
X35050000Y-147700000D02*
G75*
G02*
X34550000Y-148200000I-500000J0D01*
G01*
X34550000Y-143600000D02*
G75*
G02*
X35050000Y-144100000I0J-500000D01*
G01*
X35550000Y-142600000D02*
G75*
G02*
X36050000Y-143100000I0J-500000D01*
G01*
X36050000Y-144300000D02*
G75*
G02*
X35050000Y-144300000I-500000J0D01*
G01*
X35050000Y-147500000D02*
G75*
G02*
X36050000Y-147500000I500000J0D01*
G01*
X157500000Y-65000000D02*
X157500000Y-66500000D01*
X152500000Y-65000000D02*
X152500000Y-66500000D01*
X152500000Y-65000000D02*
G75*
G02*
X157500000Y-65000000I2500000J0D01*
G01*
X157500000Y-66500001D02*
G75*
G02*
X152500001Y-66500001I-2500000J-4499999D01*
G01*
X272500000Y-65000000D02*
X272500000Y-66500000D01*
X267500000Y-65000000D02*
X267500000Y-66500000D01*
X267500000Y-65000000D02*
G75*
G02*
X272500000Y-65000000I2500000J0D01*
G01*
X272500000Y-66500001D02*
G75*
G02*
X267500001Y-66500001I-2500000J-4499999D01*
G01*
X42500000Y-65000000D02*
X42500000Y-66500000D01*
X37500000Y-65000000D02*
X37500000Y-66500000D01*
X42500000Y-66500001D02*
G75*
G02*
X37500001Y-66500001I-2500000J-4499999D01*
G01*
X37500000Y-65000000D02*
G75*
G02*
X42500000Y-65000000I2500000J0D01*
G01*
M02*
