M48
; DRILL file {KiCad (5.1.6)-1} date 08/27/20 22:54:25
; FORMAT={-:-/ absolute / metric / decimal}
; #@! TF.CreationDate,2020-08-27T22:54:25+08:00
; #@! TF.GenerationSoftware,Kicad,Pcbnew,(5.1.6)-1
FMAT,2
METRIC
T1C0.400
T2C0.500
T3C0.600
T4C0.700
T5C0.750
T6C0.800
T7C1.000
T8C1.100
T9C1.200
T10C1.520
T11C0.650
T12C0.900
T13C1.000
T14C3.500
%
G90
G05
T1
X16.8Y-143.7
X20.55Y-141.75
X28.24Y-144.1
X39.1Y-135.15
X41.6Y-135.85
X44.5Y-136.7
X46.45Y-141.25
X49.45Y-143.85
X50.3Y-135.5
X50.6Y-142.7
X51.85Y-141.3
X52.4Y-134.4
X60.6Y-138.0
X60.8Y-136.9
X61.0Y-114.1
X62.0Y-135.8
X63.8Y-134.8
X64.1Y-110.3
X69.4Y-129.8
X69.6Y-110.3
X70.0Y-114.9
X71.6Y-120.3
X72.4Y-131.6
X73.4Y-109.4
X73.576Y-132.884
X73.6Y-118.6
X73.954Y-134.003
X74.068Y-129.227
X74.3Y-112.3
X74.785Y-127.585
X75.249Y-133.549
X75.3Y-114.9
X75.78Y-127.793
X76.487Y-127.086
X76.5Y-120.3
X76.983Y-121.175
X77.2Y-132.55
X77.3Y-134.6
X77.8Y-124.4
X78.209Y-127.381
X78.498Y-135.45
X78.5Y-123.5
X78.628Y-136.9
X79.3Y-117.75
X79.504Y-136.417
X79.796Y-120.225
X80.05Y-133.525
X80.205Y-118.175
X80.7Y-134.5
X81.9Y-149.2
X83.0Y-143.449
X83.149Y-141.549
X83.9Y-116.15
X84.7Y-116.85
X85.121Y-106.663
X85.3Y-109.088
X85.679Y-137.171
X85.89Y-136.194
X86.1Y-107.388
X86.7Y-135.5
X88.6Y-149.2
X88.8Y-120.6
X89.0Y-118.4
X89.0Y-148.25
X89.5Y-122.2
X90.3Y-140.1
X90.4Y-143.1
X90.7Y-122.0
X91.4Y-116.0
X91.5Y-108.7
X94.9Y-139.7
X95.699Y-148.801
X95.8Y-113.085
X96.042Y-115.321
X96.535Y-149.35
X96.716Y-116.06
X97.258Y-116.9
X99.501Y-106.301
X99.6Y-112.3
X99.7Y-110.4
X99.7Y-114.1
X101.4Y-110.4
X101.6Y-114.0
X102.813Y-106.313
X102.9Y-149.35
X103.3Y-137.3
X103.4Y-110.4
X103.4Y-112.3
X103.4Y-114.1
X103.9Y-149.3
X104.071Y-124.279
X109.2Y-144.9
X110.5Y-149.35
X111.371Y-145.641
X113.522Y-124.559
X113.85Y-133.25
X114.3Y-123.9
X114.353Y-134.114
X115.2Y-121.8
X115.312Y-134.398
X115.516Y-135.384
X115.8Y-144.7
X116.384Y-126.591
X117.3Y-145.4
X118.493Y-135.175
X118.821Y-141.881
X119.443Y-133.638
X119.551Y-131.675
X119.929Y-132.601
X120.411Y-142.75
X120.441Y-133.581
X121.1Y-126.1
X121.872Y-142.72
X121.959Y-135.543
X122.722Y-142.162
X123.65Y-142.6
X124.8Y-142.5
X125.512Y-130.179
X125.8Y-85.4
X126.6Y-117.261
X126.627Y-119.573
X126.7Y-122.0
X127.01Y-115.311
X128.0Y-142.8
X128.2Y-81.9
X128.707Y-141.95
X129.6Y-141.25
X130.2Y-140.1
X131.65Y-145.1
X132.3Y-75.9
X136.7Y-126.5
X137.591Y-126.954
X139.632Y-81.6
X140.4Y-145.9
X142.313Y-123.64
X143.314Y-123.665
X144.304Y-123.804
X148.05Y-82.1
X148.35Y-127.124
X149.55Y-127.95
X151.513Y-110.588
X153.9Y-110.7
X161.368Y-133.468
X162.7Y-107.3
X163.616Y-108.75
X167.6Y-116.3
X168.65Y-87.55
X171.563Y-135.65
X173.5Y-112.9
X177.35Y-110.8
X180.213Y-114.9
X181.3Y-111.4
X181.4Y-113.5
X183.4Y-111.4
X183.4Y-113.6
X185.998Y-104.879
X195.8Y-108.75
X196.0Y-138.3
X196.6Y-108.1
X198.4Y-102.975
X209.0Y-107.5
X212.3Y-105.275
X218.869Y-108.931
X241.8Y-111.9
X275.025Y-143.6
X276.5Y-144.0
X294.926Y-92.165
X295.0Y-56.0
X295.0Y-62.0
X295.0Y-69.0
X295.0Y-77.0
X295.0Y-84.0
X295.0Y-99.0
X295.0Y-107.0
T4
X283.575Y-145.537
X288.425Y-145.537
T5
X25.46Y-147.2
X26.73Y-147.2
X28.0Y-147.2
X182.7Y-143.5
X184.7Y-143.5
T6
X38.1Y-141.0
X39.102Y-145.4
X39.6Y-147.3
X47.1Y-140.1
X53.6Y-129.0
X54.3Y-140.05
X59.4Y-128.6
X60.7Y-132.9
X63.6Y-114.3
X63.7Y-100.0
X65.7Y-60.0
X72.4Y-114.1
X77.1Y-110.1
X78.966Y-102.766
X81.1Y-123.7
X82.4Y-110.2
X83.45Y-96.75
X87.5Y-116.9
X87.8Y-145.7
X88.15Y-104.5
X88.3Y-141.4
X89.7Y-108.6
X90.1Y-56.5
X90.7Y-89.25
X92.7Y-76.0
X95.1Y-144.3
X95.6Y-85.996
X95.95Y-142.584
X96.122Y-67.467
X96.8Y-71.4
X96.894Y-58.794
X96.9Y-104.9
X97.395Y-119.895
X97.5Y-68.625
X97.6Y-80.2
X98.4Y-65.65
X98.6Y-143.7
X100.2Y-62.2
X100.2Y-116.1
X101.0Y-74.5
X101.0Y-76.3
X101.4Y-112.2
X101.8Y-108.4
X102.45Y-116.95
X102.85Y-89.05
X103.4Y-119.6
X106.3Y-65.3
X107.963Y-109.963
X108.1Y-65.3
X108.4Y-124.8
X108.875Y-112.1
X109.274Y-68.843
X109.35Y-128.35
X109.8Y-64.1
X110.1Y-125.4
X110.2Y-67.3
X110.3Y-62.3
X112.1Y-131.0
X112.183Y-88.017
X112.875Y-125.8
X113.633Y-89.467
X114.1Y-108.6
X114.2Y-110.7
X115.0Y-80.2
X115.226Y-130.1
X117.0Y-72.4
X117.6Y-64.5
X117.6Y-84.6
X118.5Y-59.9
X118.75Y-94.15
X119.3Y-78.4
X119.4Y-72.3
X119.79Y-82.61
X120.4Y-100.65
X120.5Y-64.5
X120.8Y-84.5
X121.5Y-127.5
X121.79Y-110.7
X122.3Y-60.0
X122.334Y-108.984
X123.925Y-97.815
X124.818Y-111.015
X125.073Y-103.049
X125.106Y-124.494
X125.2Y-62.6
X125.4Y-104.819
X125.45Y-77.65
X125.55Y-75.65
X126.8Y-132.7
X129.6Y-87.8
X129.6Y-130.3
X131.2Y-59.7
X132.05Y-68.45
X132.772Y-89.028
X133.2Y-63.0
X133.6Y-67.35
X133.7Y-139.2
X133.9Y-98.5
X134.15Y-144.45
X134.677Y-117.742
X135.4Y-54.275
X135.75Y-68.5
X136.1Y-134.7
X138.3Y-144.3
X138.5Y-69.6
X139.1Y-137.7
X140.3Y-70.975
X140.35Y-54.05
X140.607Y-83.2
X141.428Y-117.775
X141.982Y-84.718
X144.169Y-86.092
X144.257Y-106.08
X144.35Y-89.95
X144.694Y-109.78
X144.8Y-54.05
X144.894Y-142.576
X144.9Y-137.1
X144.963Y-145.076
X145.297Y-139.507
X146.007Y-141.161
X146.036Y-115.715
X146.227Y-107.325
X146.27Y-143.736
X147.438Y-110.538
X147.6Y-54.9
X147.9Y-116.2
X148.35Y-114.085
X148.4Y-108.2
X148.581Y-144.988
X148.75Y-63.45
X149.931Y-129.781
X155.244Y-138.288
X156.6Y-148.9
X157.3Y-127.0
X157.605Y-138.15
X158.751Y-130.417
X158.8Y-144.3
X161.7Y-121.6
X162.0Y-145.8
X165.5Y-136.2
X166.7Y-88.5
X166.7Y-113.5
X167.3Y-136.5
X168.8Y-119.3
X169.9Y-145.3
X170.6Y-87.9
X173.1Y-136.7
X174.2Y-99.5
X174.963Y-131.458
X175.235Y-133.3
X175.235Y-126.964
X175.934Y-129.943
X176.508Y-128.237
X177.0Y-145.4
X177.7Y-118.0
X178.1Y-76.8
X178.75Y-82.0
X178.835Y-87.535
X178.925Y-85.5
X179.0Y-59.7
X179.1Y-98.6
X179.7Y-78.175
X180.15Y-96.8
X180.15Y-83.909
X181.525Y-82.509
X181.6Y-132.1
X182.0Y-63.2
X182.4Y-112.5
X183.0Y-130.2
X184.164Y-105.464
X184.75Y-95.2
X185.55Y-81.0
X186.9Y-105.95
X187.1Y-112.0
X189.8Y-135.1
X191.05Y-92.9
X191.2Y-131.7
X193.4Y-106.5
X194.55Y-65.25
X195.4Y-94.8
X195.5Y-56.9
X195.8Y-112.1
X197.4Y-134.1
X197.5Y-141.1
X197.9Y-131.7
X198.0Y-139.0
X199.7Y-133.9
X200.1Y-59.4
X200.3Y-107.1
X200.6Y-146.1
X200.65Y-70.45
X200.9Y-138.8
X203.9Y-61.3
X205.1Y-66.75
X205.223Y-125.519
X205.5Y-107.1
X205.6Y-62.9
X205.8Y-143.7
X206.504Y-134.136
X206.82Y-124.688
X207.034Y-127.188
X207.108Y-128.986
X207.805Y-132.886
X208.5Y-72.8
X208.5Y-74.9
X208.612Y-82.777
X208.7Y-76.7
X208.717Y-84.617
X208.722Y-80.722
X208.833Y-86.445
X208.9Y-78.6
X209.4Y-129.5
X209.45Y-89.3
X210.085Y-135.457
X210.9Y-114.3
X211.3Y-132.3
X211.5Y-130.25
X211.9Y-142.3
X212.0Y-148.7
X212.2Y-140.4
X214.2Y-140.3
X214.4Y-130.25
X214.7Y-147.4
X215.044Y-131.931
X215.5Y-143.7
X215.5Y-145.3
X216.5Y-148.7
X216.792Y-130.1
X217.1Y-142.6
X217.7Y-112.2
X217.8Y-95.0
X217.982Y-128.75
X218.3Y-115.1
X222.5Y-118.4
X224.1Y-148.15
X224.9Y-145.9
X225.2Y-117.8
X225.7Y-148.1
X226.2Y-115.4
X226.5Y-146.0
X227.4Y-148.0
X227.885Y-145.655
X229.8Y-138.7
X231.1Y-137.0
X232.153Y-132.967
X232.4Y-115.5
X232.4Y-138.8
X233.264Y-131.55
X234.8Y-124.2
X235.14Y-130.811
X236.0Y-134.2
X237.0Y-100.6
X237.1Y-124.135
X237.5Y-132.525
X237.9Y-115.6
X239.0Y-123.6
X239.0Y-141.5
X240.9Y-142.3
X241.132Y-123.368
X242.0Y-140.5
X243.452Y-122.439
X250.25Y-116.95
X253.1Y-106.0
X254.875Y-106.975
X257.55Y-75.9
X257.65Y-87.2
X261.9Y-113.1
X264.3Y-113.8
X265.2Y-115.9
X266.625Y-129.025
X270.3Y-124.3
X270.9Y-115.2
X271.834Y-123.067
X272.175Y-121.075
X272.818Y-124.574
X272.9Y-133.9
X273.5Y-119.6
X274.1Y-137.2
X275.1Y-133.8
X275.128Y-127.875
X277.222Y-131.778
X278.6Y-129.025
X282.29Y-128.91
X293.5Y-52.9
X130.0Y-57.0
X130.0Y-105.0
X132.54Y-57.0
X132.54Y-105.0
X135.08Y-57.0
X135.08Y-105.0
X137.62Y-57.0
X137.62Y-105.0
X140.16Y-57.0
X140.16Y-105.0
X170.0Y-57.0
X170.0Y-105.0
X172.54Y-57.0
X172.54Y-105.0
X175.08Y-57.0
X175.08Y-105.0
X177.62Y-57.0
X177.62Y-105.0
X180.16Y-57.0
X180.16Y-105.0
X272.0Y-57.0
X272.0Y-105.0
X274.54Y-57.0
X274.54Y-105.0
X277.08Y-57.0
X277.08Y-105.0
X279.62Y-57.0
X279.62Y-105.0
X282.16Y-57.0
X282.16Y-105.0
X65.0Y-57.0
X65.0Y-105.0
X67.54Y-57.0
X67.54Y-105.0
X70.08Y-57.0
X70.08Y-105.0
X72.62Y-57.0
X72.62Y-105.0
X75.16Y-57.0
X75.16Y-105.0
X280.0Y-122.76
X280.0Y-138.0
X282.54Y-122.76
X282.54Y-138.0
X285.08Y-122.76
X285.08Y-138.0
X287.62Y-122.76
X287.62Y-138.0
X290.16Y-122.76
X290.16Y-138.0
X25.0Y-57.0
X25.0Y-105.0
X27.54Y-57.0
X27.54Y-105.0
X30.08Y-57.0
X30.08Y-105.0
X32.62Y-57.0
X32.62Y-105.0
X35.16Y-57.0
X35.16Y-105.0
X60.0Y-124.76
X60.0Y-140.0
X62.54Y-124.76
X62.54Y-140.0
X65.08Y-124.76
X65.08Y-140.0
X67.62Y-124.76
X67.62Y-140.0
X70.16Y-124.76
X70.16Y-140.0
X233.0Y-57.0
X233.0Y-105.0
X235.54Y-57.0
X235.54Y-105.0
X238.08Y-57.0
X238.08Y-105.0
X240.62Y-57.0
X240.62Y-105.0
X243.16Y-57.0
X243.16Y-105.0
X20.0Y-124.76
X20.0Y-140.0
X22.54Y-124.76
X22.54Y-140.0
X25.08Y-124.76
X25.08Y-140.0
X27.62Y-124.76
X27.62Y-140.0
X30.16Y-124.76
X30.16Y-140.0
T7
X45.4Y-118.9
X45.4Y-123.9
X215.0Y-122.76
X215.0Y-138.0
X217.54Y-122.76
X217.54Y-138.0
X220.08Y-122.76
X220.08Y-138.0
X222.62Y-122.76
X222.62Y-138.0
X225.16Y-122.76
X225.16Y-138.0
X227.7Y-122.76
X227.7Y-138.0
X214.7Y-106.5
X84.7Y-118.3
X84.7Y-120.84
X121.7Y-118.3
X121.7Y-120.84
X153.7Y-118.3
X153.7Y-120.84
X153.7Y-123.38
X153.7Y-125.92
T8
X65.6Y-146.1
X68.14Y-146.1
X70.68Y-146.1
X73.22Y-146.1
X75.76Y-146.1
X78.3Y-146.1
X48.9Y-146.1
X51.44Y-146.1
X53.98Y-146.1
X56.52Y-146.1
X59.06Y-146.1
X61.6Y-146.1
X13.65Y-146.1
X16.19Y-146.1
X18.73Y-146.1
X21.27Y-146.1
X13.8Y-111.43
X13.8Y-113.97
X13.8Y-116.51
X13.8Y-119.05
T9
X56.5Y-116.5
X136.2Y-121.248
X138.385Y-91.8
X140.072Y-132.832
X163.7Y-124.4
X169.8Y-124.4
X177.9Y-92.8
X180.741Y-120.54
X191.024Y-128.824
X201.5Y-92.4
X246.325Y-121.025
X246.6Y-136.9
X248.219Y-106.681
X250.0Y-114.85
X250.35Y-112.35
X254.6Y-131.175
X260.712Y-121.048
T10
X296.05Y-112.97
X296.05Y-118.05
X262.5Y-146.0
X267.58Y-146.0
T11
X273.11Y-143.4
X278.89Y-143.4
T12
X232.45Y-148.08
X235.45Y-148.08
X97.575Y-148.45
X101.825Y-148.45
X298.5Y-75.375
X298.5Y-79.625
X298.5Y-97.875
X298.5Y-102.125
X90.075Y-148.45
X94.325Y-148.45
X298.4Y-52.875
X298.4Y-57.125
X83.075Y-148.45
X87.325Y-148.45
X105.075Y-148.45
X109.325Y-148.45
X298.5Y-82.875
X298.5Y-87.125
X298.5Y-60.375
X298.5Y-64.625
X298.5Y-90.375
X298.5Y-94.625
X298.5Y-67.875
X298.5Y-72.125
X298.5Y-105.275
X298.5Y-109.525
T13
X166.45Y-145.25
X174.45Y-145.25
T14
X43.0Y-143.0
X191.0Y-143.0
X105.0Y-57.0
X205.0Y-57.0
X282.3Y-116.4
T2
G00X282.4Y-148.737
M15
G01X282.4Y-147.938
M16
G05
G00X289.6Y-147.938
M15
G01X289.6Y-148.737
M16
G05
T3
G00X271.68Y-142.32
M15
G01X271.68Y-143.42
M16
G05
G00X271.68Y-146.75
M15
G01X271.68Y-147.35
M16
G05
G00X280.32Y-142.32
M15
G01X280.32Y-143.42
M16
G05
G00X280.32Y-146.75
M15
G01X280.32Y-147.35
M16
G05
T6
G00X252.2Y-136.0
M15
G01X254.8Y-136.0
M16
G05
G00X252.4Y-141.8
M15
G01X254.6Y-141.8
M16
G05
G00X258.3Y-140.1
M15
G01X258.3Y-137.9
M16
G05
G00X292.0Y-147.8
M15
G01X292.0Y-145.2
M16
G05
G00X296.1Y-141.7
M15
G01X293.9Y-141.7
M16
G05
G00X297.8Y-147.6
M15
G01X297.8Y-145.4
M16
G05
T0
M30
